<?xml version="1.0"?>
<svg xmlns="http://www.w3.org/2000/svg" height="512px" viewBox="0 0 512 512" width="512px"><path d="m174.5 276.113281c28.664062 0 95.800781-96.511719 95.800781-150.3125 0-52.910156-42.886719-95.800781-95.800781-95.800781-52.910156 0-95.800781 42.890625-95.800781 95.800781 0 46.699219 61.820312 150.3125 95.800781 150.3125zm0-199.96875c27.421875 0 49.660156 22.234375 49.660156 49.65625s-22.234375 49.660157-49.660156 49.660157c-27.421875 0-49.65625-22.238282-49.65625-49.660157s22.234375-49.65625 49.65625-49.65625zm13.902344 35.753907c7.675781 7.675781 7.675781 20.128906 0 27.804687-12.34375 12.34375-33.558594 3.566406-33.558594-13.902344s21.214844-26.246093 33.558594-13.902343zm-123.152344 79.214843c20.332031 45.949219 69.558594 115 109.25 115s88.917969-69.050781 109.25-115h35.25v245.195313h-158.976562c-17.375-51.773438-91.492188-52.296875-109.046876 0h-20.976562v-245.195313zm229.496094-30c59.832031 0 54.253906-6.390625 54.253906 48.472657 36.738281 3.253906 68.054688 23.167968 87.128906 55.175781l29.410156 49.355469c25.671876.289062 46.460938 21.285156 46.460938 46.996093v90c0 19.183594-23.78125 15-41.152344 15-12.367187 60.925781-100.328125 60.925781-112.695312 0l-196.34375.195313c-12.539063 60.671875-100.078125 60.671875-112.617188 0h-34.191406c-8.285156 0-15-6.714844-15-15v-275.195313c0-8.285156 6.714844-15 15-15h39.257812c-24.261718-85.269531 39.621094-161.113281 120.242188-161.113281s144.507812 75.84375 120.246094 161.113281zm174.214844 275h13.039062v-75c0-9.34375-7.65625-17-17-17h-75c-19.75 0-19.75-30 0-30h40.726562c-21.097656-35.402343-35.015624-68.898437-81.726562-74.378906v196.378906h11.042969c17.671875-52.03125 91.410156-51.527343 108.917969 0zm-35.015626-.945312c-17.273437-17.277344-46.945312-4.988281-46.945312 19.445312 0 24.433594 29.671875 36.722657 46.945312 19.445313 10.738282-10.738282 10.738282-28.15625 0-38.890625zm-355.863281 17.292969c-1.0625 27.554687 29.953125 38.511718 46.863281 21.597656 17.277344-17.273438 4.988282-46.945313-19.445312-46.945313-14.414062 0-26.316406 11.113281-27.417969 25.347657zm0 0" fill-rule="evenodd" fill="#424242"/></svg>
